<mxfile host="65bd71144e">
    <diagram id="webkzbb4wAJ_64y_ql-h" name="Page-1">
        <mxGraphModel dx="820" dy="478" grid="1" gridSize="10" guides="1" tooltips="1" connect="1" arrows="1" fold="1" page="1" pageScale="1" pageWidth="850" pageHeight="1100" math="0" shadow="0">
            <root>
                <mxCell id="0"/>
                <mxCell id="1" parent="0"/>
                <mxCell id="29" value="" style="strokeWidth=1;shadow=0;dashed=0;align=center;html=1;shape=mxgraph.mockup.containers.browserWindow;rSize=0;strokeColor=#666666;strokeColor2=#008cff;strokeColor3=#c4c4c4;mainText=,;recursiveResize=0;" parent="1" vertex="1">
                    <mxGeometry x="60" width="730" height="470" as="geometry"/>
                </mxCell>
                <mxCell id="30" value="Page 1" style="strokeWidth=1;shadow=0;dashed=0;align=center;html=1;shape=mxgraph.mockup.containers.anchor;fontSize=17;fontColor=#666666;align=left;" parent="29" vertex="1">
                    <mxGeometry x="60" y="12" width="110" height="26" as="geometry"/>
                </mxCell>
                <mxCell id="31" value="http://localhost:3000/nhanvien" style="strokeWidth=1;shadow=0;dashed=0;align=center;html=1;shape=mxgraph.mockup.containers.anchor;rSize=0;fontSize=17;fontColor=#666666;align=left;" parent="29" vertex="1">
                    <mxGeometry x="130" y="60" width="250" height="26" as="geometry"/>
                </mxCell>
                <mxCell id="32" value="LOGO" style="ellipse;whiteSpace=wrap;html=1;" parent="29" vertex="1">
                    <mxGeometry x="20" y="140" width="70" height="50" as="geometry"/>
                </mxCell>
                <mxCell id="33" value="Nhân viên" style="strokeWidth=1;shadow=0;dashed=0;align=center;html=1;shape=mxgraph.mockup.buttons.button;strokeColor=#3700CC;fontColor=#ffffff;mainText=;buttonStyle=round;fontSize=17;fontStyle=1;fillColor=#6a00ff;whiteSpace=wrap;" parent="29" vertex="1">
                    <mxGeometry x="110" y="145" width="90" height="35" as="geometry"/>
                </mxCell>
                <mxCell id="36" value="Nhân viên" style="rounded=0;whiteSpace=wrap;html=1;strokeColor=none;" parent="29" vertex="1">
                    <mxGeometry x="80" y="190" width="110" height="30" as="geometry"/>
                </mxCell>
                <mxCell id="37" value="" style="verticalLabelPosition=bottom;shadow=0;dashed=0;align=center;html=1;verticalAlign=top;strokeWidth=1;shape=mxgraph.mockup.containers.userMale;strokeColor=#666666;strokeColor2=#008cff;" parent="29" vertex="1">
                    <mxGeometry x="110" y="240" width="70" height="70" as="geometry"/>
                </mxCell>
                <mxCell id="39" value="" style="verticalLabelPosition=bottom;shadow=0;dashed=0;align=center;html=1;verticalAlign=top;strokeWidth=1;shape=mxgraph.mockup.containers.userMale;strokeColor=#666666;strokeColor2=#008cff;" parent="29" vertex="1">
                    <mxGeometry x="200" y="240" width="70" height="70" as="geometry"/>
                </mxCell>
                <mxCell id="40" value="" style="verticalLabelPosition=bottom;shadow=0;dashed=0;align=center;html=1;verticalAlign=top;strokeWidth=1;shape=mxgraph.mockup.containers.userMale;strokeColor=#666666;strokeColor2=#008cff;" parent="29" vertex="1">
                    <mxGeometry x="290" y="240" width="70" height="70" as="geometry"/>
                </mxCell>
                <mxCell id="41" value="" style="verticalLabelPosition=bottom;shadow=0;dashed=0;align=center;html=1;verticalAlign=top;strokeWidth=1;shape=mxgraph.mockup.containers.userMale;strokeColor=#666666;strokeColor2=#008cff;" parent="29" vertex="1">
                    <mxGeometry x="380" y="240" width="70" height="70" as="geometry"/>
                </mxCell>
                <mxCell id="42" value="" style="verticalLabelPosition=bottom;shadow=0;dashed=0;align=center;html=1;verticalAlign=top;strokeWidth=1;shape=mxgraph.mockup.containers.userMale;strokeColor=#666666;strokeColor2=#008cff;" parent="29" vertex="1">
                    <mxGeometry x="470" y="240" width="70" height="70" as="geometry"/>
                </mxCell>
                <mxCell id="43" value="" style="verticalLabelPosition=bottom;shadow=0;dashed=0;align=center;html=1;verticalAlign=top;strokeWidth=1;shape=mxgraph.mockup.containers.userMale;strokeColor=#666666;strokeColor2=#008cff;" parent="29" vertex="1">
                    <mxGeometry x="560" y="240" width="70" height="70" as="geometry"/>
                </mxCell>
                <mxCell id="44" value="" style="verticalLabelPosition=bottom;shadow=0;dashed=0;align=center;html=1;verticalAlign=top;strokeWidth=1;shape=mxgraph.mockup.containers.userMale;strokeColor=#666666;strokeColor2=#008cff;" parent="29" vertex="1">
                    <mxGeometry x="110" y="330" width="70" height="70" as="geometry"/>
                </mxCell>
                <mxCell id="45" value="" style="verticalLabelPosition=bottom;shadow=0;dashed=0;align=center;html=1;verticalAlign=top;strokeWidth=1;shape=mxgraph.mockup.containers.userMale;strokeColor=#666666;strokeColor2=#008cff;" parent="29" vertex="1">
                    <mxGeometry x="200" y="330" width="70" height="70" as="geometry"/>
                </mxCell>
                <mxCell id="46" value="" style="verticalLabelPosition=bottom;shadow=0;dashed=0;align=center;html=1;verticalAlign=top;strokeWidth=1;shape=mxgraph.mockup.containers.userMale;strokeColor=#666666;strokeColor2=#008cff;" parent="29" vertex="1">
                    <mxGeometry x="290" y="330" width="70" height="70" as="geometry"/>
                </mxCell>
                <mxCell id="47" value="" style="verticalLabelPosition=bottom;shadow=0;dashed=0;align=center;html=1;verticalAlign=top;strokeWidth=1;shape=mxgraph.mockup.containers.userMale;strokeColor=#666666;strokeColor2=#008cff;" parent="29" vertex="1">
                    <mxGeometry x="380" y="330" width="70" height="70" as="geometry"/>
                </mxCell>
                <mxCell id="48" value="" style="verticalLabelPosition=bottom;shadow=0;dashed=0;align=center;html=1;verticalAlign=top;strokeWidth=1;shape=mxgraph.mockup.containers.userMale;strokeColor=#666666;strokeColor2=#008cff;" parent="29" vertex="1">
                    <mxGeometry x="470" y="330" width="70" height="70" as="geometry"/>
                </mxCell>
                <mxCell id="49" value="" style="verticalLabelPosition=bottom;shadow=0;dashed=0;align=center;html=1;verticalAlign=top;strokeWidth=1;shape=mxgraph.mockup.containers.userMale;strokeColor=#666666;strokeColor2=#008cff;" parent="29" vertex="1">
                    <mxGeometry x="560" y="330" width="70" height="70" as="geometry"/>
                </mxCell>
                <mxCell id="50" value="Phòng ban" style="strokeWidth=1;shadow=0;dashed=0;align=center;html=1;shape=mxgraph.mockup.buttons.button;strokeColor=#3700CC;fontColor=#ffffff;mainText=;buttonStyle=round;fontSize=17;fontStyle=1;fillColor=#6a00ff;whiteSpace=wrap;" parent="29" vertex="1">
                    <mxGeometry x="210" y="145" width="90" height="35" as="geometry"/>
                </mxCell>
                <mxCell id="51" value="Bảng lương" style="strokeWidth=1;shadow=0;dashed=0;align=center;html=1;shape=mxgraph.mockup.buttons.button;strokeColor=#3700CC;fontColor=#ffffff;mainText=;buttonStyle=round;fontSize=17;fontStyle=1;fillColor=#6a00ff;whiteSpace=wrap;" parent="29" vertex="1">
                    <mxGeometry x="310" y="145" width="100" height="35" as="geometry"/>
                </mxCell>
                <mxCell id="52" value="" style="strokeWidth=1;shadow=0;dashed=0;align=center;html=1;shape=mxgraph.mockup.containers.browserWindow;rSize=0;strokeColor=#666666;strokeColor2=#008cff;strokeColor3=#c4c4c4;mainText=,;recursiveResize=0;" parent="1" vertex="1">
                    <mxGeometry x="70" y="520" width="750" height="660" as="geometry"/>
                </mxCell>
                <mxCell id="53" value="Page 1" style="strokeWidth=1;shadow=0;dashed=0;align=center;html=1;shape=mxgraph.mockup.containers.anchor;fontSize=17;fontColor=#666666;align=left;" parent="52" vertex="1">
                    <mxGeometry x="60" y="12" width="110" height="26" as="geometry"/>
                </mxCell>
                <mxCell id="54" value="http://localhost:3000/nhanvien/0" style="strokeWidth=1;shadow=0;dashed=0;align=center;html=1;shape=mxgraph.mockup.containers.anchor;rSize=0;fontSize=17;fontColor=#666666;align=left;" parent="52" vertex="1">
                    <mxGeometry x="130" y="60" width="250" height="26" as="geometry"/>
                </mxCell>
                <mxCell id="55" value="LOGO" style="ellipse;whiteSpace=wrap;html=1;" parent="52" vertex="1">
                    <mxGeometry x="20" y="140" width="70" height="50" as="geometry"/>
                </mxCell>
                <mxCell id="56" value="Nhân viên" style="strokeWidth=1;shadow=0;dashed=0;align=center;html=1;shape=mxgraph.mockup.buttons.button;strokeColor=#3700CC;fontColor=#ffffff;mainText=;buttonStyle=round;fontSize=17;fontStyle=1;fillColor=#6a00ff;whiteSpace=wrap;" parent="52" vertex="1">
                    <mxGeometry x="110" y="145" width="90" height="35" as="geometry"/>
                </mxCell>
                <mxCell id="57" value="Nhân viên / Nguyễn Văn A" style="rounded=0;whiteSpace=wrap;html=1;strokeColor=none;" parent="52" vertex="1">
                    <mxGeometry x="80" y="190" width="160" height="30" as="geometry"/>
                </mxCell>
                <mxCell id="58" value="" style="verticalLabelPosition=bottom;shadow=0;dashed=0;align=center;html=1;verticalAlign=top;strokeWidth=1;shape=mxgraph.mockup.containers.userMale;strokeColor=#666666;strokeColor2=#008cff;" parent="52" vertex="1">
                    <mxGeometry x="110" y="240" width="120" height="130" as="geometry"/>
                </mxCell>
                <mxCell id="70" value="Phòng ban" style="strokeWidth=1;shadow=0;dashed=0;align=center;html=1;shape=mxgraph.mockup.buttons.button;strokeColor=#3700CC;fontColor=#ffffff;mainText=;buttonStyle=round;fontSize=17;fontStyle=1;fillColor=#6a00ff;whiteSpace=wrap;" parent="52" vertex="1">
                    <mxGeometry x="210" y="145" width="90" height="35" as="geometry"/>
                </mxCell>
                <mxCell id="71" value="Bảng lương" style="strokeWidth=1;shadow=0;dashed=0;align=center;html=1;shape=mxgraph.mockup.buttons.button;strokeColor=#3700CC;fontColor=#ffffff;mainText=;buttonStyle=round;fontSize=17;fontStyle=1;fillColor=#6a00ff;whiteSpace=wrap;" parent="52" vertex="1">
                    <mxGeometry x="310" y="145" width="100" height="35" as="geometry"/>
                </mxCell>
                <mxCell id="72" value="&lt;ul&gt;&lt;li&gt;Họ và tên: Nguyễn Văn A&lt;/li&gt;&lt;li&gt;Ngày sinh: 01/01/1999&lt;/li&gt;&lt;li&gt;Ngày vào công ty: 30/04/2019&lt;/li&gt;&lt;li&gt;Phòng ban: sale&lt;/li&gt;&lt;li&gt;Số ngày nghỉ còn lại: 1&lt;/li&gt;&lt;li&gt;Số ngày&amp;nbsp; đã làm thêm: 1&lt;/li&gt;&lt;/ul&gt;" style="rounded=0;whiteSpace=wrap;html=1;align=left;" parent="52" vertex="1">
                    <mxGeometry x="255" y="240" width="210" height="130" as="geometry"/>
                </mxCell>
                <mxCell id="73" value="" style="strokeWidth=1;shadow=0;dashed=0;align=center;html=1;shape=mxgraph.mockup.containers.browserWindow;rSize=0;strokeColor=#666666;strokeColor2=#008cff;strokeColor3=#c4c4c4;mainText=,;recursiveResize=0;" vertex="1" parent="1">
                    <mxGeometry x="70" y="1240" width="760" height="470" as="geometry"/>
                </mxCell>
                <mxCell id="74" value="Page 1" style="strokeWidth=1;shadow=0;dashed=0;align=center;html=1;shape=mxgraph.mockup.containers.anchor;fontSize=17;fontColor=#666666;align=left;" vertex="1" parent="73">
                    <mxGeometry x="60" y="12" width="110" height="26" as="geometry"/>
                </mxCell>
                <mxCell id="75" value="http://localhost:3000/phongban" style="strokeWidth=1;shadow=0;dashed=0;align=center;html=1;shape=mxgraph.mockup.containers.anchor;rSize=0;fontSize=17;fontColor=#666666;align=left;" vertex="1" parent="73">
                    <mxGeometry x="130" y="60" width="250" height="26" as="geometry"/>
                </mxCell>
                <mxCell id="76" value="LOGO" style="ellipse;whiteSpace=wrap;html=1;" vertex="1" parent="73">
                    <mxGeometry x="20" y="140" width="70" height="50" as="geometry"/>
                </mxCell>
                <mxCell id="77" value="Nhân viên" style="strokeWidth=1;shadow=0;dashed=0;align=center;html=1;shape=mxgraph.mockup.buttons.button;strokeColor=#3700CC;fontColor=#ffffff;mainText=;buttonStyle=round;fontSize=17;fontStyle=1;fillColor=#6a00ff;whiteSpace=wrap;" vertex="1" parent="73">
                    <mxGeometry x="110" y="145" width="90" height="35" as="geometry"/>
                </mxCell>
                <mxCell id="80" value="Phòng ban" style="strokeWidth=1;shadow=0;dashed=0;align=center;html=1;shape=mxgraph.mockup.buttons.button;strokeColor=#3700CC;fontColor=#ffffff;mainText=;buttonStyle=round;fontSize=17;fontStyle=1;fillColor=#6a00ff;whiteSpace=wrap;" vertex="1" parent="73">
                    <mxGeometry x="210" y="145" width="90" height="35" as="geometry"/>
                </mxCell>
                <mxCell id="81" value="Bảng lương" style="strokeWidth=1;shadow=0;dashed=0;align=center;html=1;shape=mxgraph.mockup.buttons.button;strokeColor=#3700CC;fontColor=#ffffff;mainText=;buttonStyle=round;fontSize=17;fontStyle=1;fillColor=#6a00ff;whiteSpace=wrap;" vertex="1" parent="73">
                    <mxGeometry x="310" y="145" width="100" height="35" as="geometry"/>
                </mxCell>
                <mxCell id="83" value="value" style="rounded=0;whiteSpace=wrap;html=1;" vertex="1" parent="73">
                    <mxGeometry x="95" y="230" width="120" height="60" as="geometry"/>
                </mxCell>
                <mxCell id="84" value="value" style="rounded=0;whiteSpace=wrap;html=1;" vertex="1" parent="73">
                    <mxGeometry x="290" y="230" width="120" height="60" as="geometry"/>
                </mxCell>
                <mxCell id="85" value="value" style="rounded=0;whiteSpace=wrap;html=1;" vertex="1" parent="73">
                    <mxGeometry x="480" y="230" width="120" height="60" as="geometry"/>
                </mxCell>
                <mxCell id="86" value="value" style="rounded=0;whiteSpace=wrap;html=1;" vertex="1" parent="73">
                    <mxGeometry x="95" y="340" width="120" height="60" as="geometry"/>
                </mxCell>
                <mxCell id="87" value="value" style="rounded=0;whiteSpace=wrap;html=1;" vertex="1" parent="73">
                    <mxGeometry x="290" y="340" width="120" height="60" as="geometry"/>
                </mxCell>
                <mxCell id="88" value="" style="strokeWidth=1;shadow=0;dashed=0;align=center;html=1;shape=mxgraph.mockup.containers.browserWindow;rSize=0;strokeColor=#666666;strokeColor2=#008cff;strokeColor3=#c4c4c4;mainText=,;recursiveResize=0;" vertex="1" parent="1">
                    <mxGeometry x="70" y="1790" width="740" height="600" as="geometry"/>
                </mxCell>
                <mxCell id="89" value="Page 1" style="strokeWidth=1;shadow=0;dashed=0;align=center;html=1;shape=mxgraph.mockup.containers.anchor;fontSize=17;fontColor=#666666;align=left;" vertex="1" parent="88">
                    <mxGeometry x="60" y="12" width="110" height="26" as="geometry"/>
                </mxCell>
                <mxCell id="90" value="http://localhost:3000/bangluong" style="strokeWidth=1;shadow=0;dashed=0;align=center;html=1;shape=mxgraph.mockup.containers.anchor;rSize=0;fontSize=17;fontColor=#666666;align=left;" vertex="1" parent="88">
                    <mxGeometry x="130" y="60" width="250" height="26" as="geometry"/>
                </mxCell>
                <mxCell id="91" value="LOGO" style="ellipse;whiteSpace=wrap;html=1;" vertex="1" parent="88">
                    <mxGeometry x="20" y="140" width="70" height="50" as="geometry"/>
                </mxCell>
                <mxCell id="92" value="Nhân viên" style="strokeWidth=1;shadow=0;dashed=0;align=center;html=1;shape=mxgraph.mockup.buttons.button;strokeColor=#3700CC;fontColor=#ffffff;mainText=;buttonStyle=round;fontSize=17;fontStyle=1;fillColor=#6a00ff;whiteSpace=wrap;" vertex="1" parent="88">
                    <mxGeometry x="110" y="145" width="90" height="35" as="geometry"/>
                </mxCell>
                <mxCell id="93" value="Nhân viên / Bảng lương" style="rounded=0;whiteSpace=wrap;html=1;strokeColor=none;" vertex="1" parent="88">
                    <mxGeometry x="80" y="190" width="160" height="30" as="geometry"/>
                </mxCell>
                <mxCell id="95" value="Phòng ban" style="strokeWidth=1;shadow=0;dashed=0;align=center;html=1;shape=mxgraph.mockup.buttons.button;strokeColor=#3700CC;fontColor=#ffffff;mainText=;buttonStyle=round;fontSize=17;fontStyle=1;fillColor=#6a00ff;whiteSpace=wrap;" vertex="1" parent="88">
                    <mxGeometry x="210" y="145" width="90" height="35" as="geometry"/>
                </mxCell>
                <mxCell id="96" value="Bảng lương" style="strokeWidth=1;shadow=0;dashed=0;align=center;html=1;shape=mxgraph.mockup.buttons.button;strokeColor=#3700CC;fontColor=#ffffff;mainText=;buttonStyle=round;fontSize=17;fontStyle=1;fillColor=#6a00ff;whiteSpace=wrap;" vertex="1" parent="88">
                    <mxGeometry x="310" y="145" width="100" height="35" as="geometry"/>
                </mxCell>
                <mxCell id="98" value="&amp;nbsp;&lt;br&gt;&lt;br&gt;&amp;nbsp;&lt;br&gt;&lt;br&gt;&amp;nbsp;value&lt;br&gt;&amp;nbsp;value" style="whiteSpace=wrap;html=1;aspect=fixed;align=left;" vertex="1" parent="88">
                    <mxGeometry x="90" y="260" width="130" height="130" as="geometry"/>
                </mxCell>
                <mxCell id="99" value="" style="verticalLabelPosition=bottom;shadow=0;dashed=0;align=center;html=1;verticalAlign=top;strokeWidth=1;shape=mxgraph.mockup.containers.userMale;strokeColor=#666666;strokeColor2=#008cff;" vertex="1" parent="88">
                    <mxGeometry x="100" y="270" width="50" height="50" as="geometry"/>
                </mxCell>
                <mxCell id="100" value="&amp;nbsp;&lt;br&gt;&lt;br&gt;&amp;nbsp;&lt;br&gt;&lt;br&gt;&amp;nbsp;value&lt;br&gt;&amp;nbsp;value" style="whiteSpace=wrap;html=1;aspect=fixed;align=left;" vertex="1" parent="88">
                    <mxGeometry x="300" y="260" width="130" height="130" as="geometry"/>
                </mxCell>
                <mxCell id="101" value="&amp;nbsp;&lt;br&gt;&lt;br&gt;&amp;nbsp;&lt;br&gt;&lt;br&gt;&amp;nbsp;value&lt;br&gt;&amp;nbsp;value" style="whiteSpace=wrap;html=1;aspect=fixed;align=left;" vertex="1" parent="88">
                    <mxGeometry x="500" y="260" width="130" height="130" as="geometry"/>
                </mxCell>
                <mxCell id="102" value="&amp;nbsp;&lt;br&gt;&lt;br&gt;&amp;nbsp;&lt;br&gt;&lt;br&gt;&amp;nbsp;value&lt;br&gt;&amp;nbsp;value" style="whiteSpace=wrap;html=1;aspect=fixed;align=left;" vertex="1" parent="88">
                    <mxGeometry x="90" y="420" width="130" height="130" as="geometry"/>
                </mxCell>
                <mxCell id="103" value="&amp;nbsp;&lt;br&gt;&lt;br&gt;&amp;nbsp;&lt;br&gt;&lt;br&gt;&amp;nbsp;value&lt;br&gt;&amp;nbsp;value" style="whiteSpace=wrap;html=1;aspect=fixed;align=left;" vertex="1" parent="88">
                    <mxGeometry x="300" y="420" width="130" height="130" as="geometry"/>
                </mxCell>
                <mxCell id="104" value="&amp;nbsp;&lt;br&gt;&lt;br&gt;&amp;nbsp;&lt;br&gt;&lt;br&gt;&amp;nbsp;value&lt;br&gt;&amp;nbsp;value" style="whiteSpace=wrap;html=1;aspect=fixed;align=left;" vertex="1" parent="88">
                    <mxGeometry x="500" y="420" width="130" height="130" as="geometry"/>
                </mxCell>
                <mxCell id="105" value="" style="verticalLabelPosition=bottom;shadow=0;dashed=0;align=center;html=1;verticalAlign=top;strokeWidth=1;shape=mxgraph.mockup.containers.userMale;strokeColor=#666666;strokeColor2=#008cff;" vertex="1" parent="88">
                    <mxGeometry x="310" y="270" width="50" height="50" as="geometry"/>
                </mxCell>
                <mxCell id="106" value="" style="verticalLabelPosition=bottom;shadow=0;dashed=0;align=center;html=1;verticalAlign=top;strokeWidth=1;shape=mxgraph.mockup.containers.userMale;strokeColor=#666666;strokeColor2=#008cff;" vertex="1" parent="88">
                    <mxGeometry x="510" y="270" width="50" height="50" as="geometry"/>
                </mxCell>
                <mxCell id="107" value="" style="verticalLabelPosition=bottom;shadow=0;dashed=0;align=center;html=1;verticalAlign=top;strokeWidth=1;shape=mxgraph.mockup.containers.userMale;strokeColor=#666666;strokeColor2=#008cff;" vertex="1" parent="88">
                    <mxGeometry x="100" y="430" width="50" height="50" as="geometry"/>
                </mxCell>
                <mxCell id="108" value="" style="verticalLabelPosition=bottom;shadow=0;dashed=0;align=center;html=1;verticalAlign=top;strokeWidth=1;shape=mxgraph.mockup.containers.userMale;strokeColor=#666666;strokeColor2=#008cff;" vertex="1" parent="88">
                    <mxGeometry x="310" y="430" width="50" height="50" as="geometry"/>
                </mxCell>
                <mxCell id="109" value="" style="verticalLabelPosition=bottom;shadow=0;dashed=0;align=center;html=1;verticalAlign=top;strokeWidth=1;shape=mxgraph.mockup.containers.userMale;strokeColor=#666666;strokeColor2=#008cff;" vertex="1" parent="88">
                    <mxGeometry x="510" y="430" width="50" height="50" as="geometry"/>
                </mxCell>
            </root>
        </mxGraphModel>
    </diagram>
</mxfile>